<?xml version="1.0" encoding="UTF-8" standalone="no"?>
<!-- Created with Inkscape (http://www.inkscape.org/) -->

<svg
   width="600.0px"
   height="600.0px"
   viewBox="0 0 600.0 600.0"
   version="1.1"
   id="SVGRoot"
   sodipodi:docname="rust_preset.svg"
   inkscape:version="1.1.2 (0a00cf5339, 2022-02-04)"
   xmlns:inkscape="http://www.inkscape.org/namespaces/inkscape"
   xmlns:sodipodi="http://sodipodi.sourceforge.net/DTD/sodipodi-0.dtd"
   xmlns:xlink="http://www.w3.org/1999/xlink"
   xmlns="http://www.w3.org/2000/svg"
   xmlns:svg="http://www.w3.org/2000/svg">
  <sodipodi:namedview
     id="namedview2203"
     pagecolor="#505050"
     bordercolor="#eeeeee"
     borderopacity="1"
     inkscape:pageshadow="0"
     inkscape:pageopacity="0"
     inkscape:pagecheckerboard="0"
     inkscape:document-units="px"
     showgrid="false"
     inkscape:zoom="2.5620931"
     inkscape:cx="438.70381"
     inkscape:cy="196.71416"
     inkscape:window-width="1920"
     inkscape:window-height="1043"
     inkscape:window-x="0"
     inkscape:window-y="0"
     inkscape:window-maximized="1"
     inkscape:current-layer="use6465"
     showguides="true"
     inkscape:guide-bbox="true"
     inkscape:lockguides="true"
     inkscape:snap-page="true"
     inkscape:snap-center="true"
     inkscape:snap-object-midpoints="true"
     inkscape:snap-midpoints="true"
     inkscape:object-paths="true"
     inkscape:snap-intersection-paths="true">
    <inkscape:grid
       type="xygrid"
       id="grid2209" />
    <sodipodi:guide
       position="358,320"
       orientation="0,-1"
       id="guide2818"
       inkscape:locked="true" />
    <sodipodi:guide
       position="330.8748,160"
       orientation="0,-1"
       id="guide2820"
       inkscape:locked="true" />
    <sodipodi:guide
       position="358,160"
       orientation="1,0"
       id="guide2822"
       inkscape:locked="true" />
    <sodipodi:guide
       position="166,320"
       orientation="1,0"
       id="guide2824"
       inkscape:locked="true" />
    <sodipodi:guide
       position="584,490"
       orientation="0,-1"
       id="guide4538"
       inkscape:locked="true" />
    <sodipodi:guide
       position="584,474"
       orientation="0,-1"
       id="guide4540"
       inkscape:locked="true" />
    <sodipodi:guide
       position="564,490"
       orientation="1,0"
       id="guide4542"
       inkscape:locked="true" />
    <sodipodi:guide
       position="584,474"
       orientation="1,0"
       id="guide4544"
       inkscape:locked="true" />
  </sodipodi:namedview>
  <defs
     id="defs2198">
    <filter
       inkscape:collect="always"
       style="color-interpolation-filters:sRGB"
       id="filter1302"
       x="-0.012000846"
       width="1.0240017"
       y="-0.011999155"
       height="1.0239983">
      <feGaussianBlur
         inkscape:collect="always"
         stdDeviation="2.0803224"
         id="feGaussianBlur1304" />
    </filter>
    <linearGradient
       id="bg-gradient-2"
       inkscape:swatch="gradient">
      <stop
         style="stop-color:#3584e4;stop-opacity:1"
         offset="0"
         id="stop13402" />
      <stop
         style="stop-color:#62a0ea;stop-opacity:1"
         offset="1"
         id="stop13404" />
    </linearGradient>
    <clipPath
       clipPathUnits="userSpaceOnUse"
       id="clipPath1509">
      <path
         sodipodi:nodetypes="ccccccccc"
         inkscape:connector-curvature="0"
         id="path1511"
         d="M 192,-164 H 88 c 0,0 -40,0 -40,40 V 4 h 416 v -96 c 0,0 0,-40 -40,-40 H 224 Z"
         style="display:inline;opacity:1;vector-effect:none;fill:#c9b8a7;fill-opacity:1;stroke:none;stroke-width:26.0669;stroke-linecap:butt;stroke-linejoin:miter;stroke-miterlimit:4;stroke-dasharray:none;stroke-dashoffset:0;stroke-opacity:1;marker:none;marker-start:none;marker-mid:none;marker-end:none;paint-order:normal;enable-background:new" />
    </clipPath>
    <filter
       inkscape:collect="always"
       style="color-interpolation-filters:sRGB"
       id="filter1529"
       x="-0.10846153"
       width="1.2169231"
       y="-0.13428571"
       height="1.2685714">
      <feGaussianBlur
         inkscape:collect="always"
         stdDeviation="18.8"
         id="feGaussianBlur1531" />
    </filter>
    <linearGradient
       inkscape:collect="always"
       id="linearGradient888">
      <stop
         style="stop-color:#99c1f1;stop-opacity:1"
         offset="0"
         id="stop884" />
      <stop
         style="stop-color:#c3e5e7;stop-opacity:1"
         offset="1"
         id="stop886" />
    </linearGradient>
    <linearGradient
       id="bg-gradient"
       inkscape:swatch="gradient">
      <stop
         style="stop-color:#3584e4;stop-opacity:1"
         offset="0"
         id="stop9546" />
      <stop
         style="stop-color:#1a5fb4;stop-opacity:1"
         offset="1"
         id="stop9548" />
    </linearGradient>
    <linearGradient
       inkscape:collect="always"
       id="linearGradient6886">
      <stop
         style="stop-color:#99c1f1;stop-opacity:1"
         offset="0"
         id="stop6882" />
      <stop
         style="stop-color:#589ae8;stop-opacity:1"
         offset="1"
         id="stop6884" />
    </linearGradient>
    <clipPath
       clipPathUnits="userSpaceOnUse"
       id="clipPath713">
      <path
         sodipodi:nodetypes="ccccccccc"
         inkscape:connector-curvature="0"
         id="path711"
         d="M 192,-164 H 88 c 0,0 -40,0 -40,40 V 4 h 416 v -96 c 0,0 0,-40 -40,-40 H 224 Z"
         style="display:inline;opacity:1;vector-effect:none;fill:#c9b8a7;fill-opacity:1;stroke:none;stroke-width:26.0669;stroke-linecap:butt;stroke-linejoin:miter;stroke-miterlimit:4;stroke-dasharray:none;stroke-dashoffset:0;stroke-opacity:1;marker:none;marker-start:none;marker-mid:none;marker-end:none;paint-order:normal;enable-background:new" />
    </clipPath>
    <linearGradient
       inkscape:collect="always"
       xlink:href="#bg-gradient-2"
       id="linearGradient2607"
       gradientUnits="userSpaceOnUse"
       x1="64"
       y1="756"
       x2="480"
       y2="756" />
    <linearGradient
       inkscape:collect="always"
       xlink:href="#linearGradient888"
       id="linearGradient2609"
       gradientUnits="userSpaceOnUse"
       x1="152.89844"
       y1="-38.796875"
       x2="447.30859"
       y2="316" />
    <linearGradient
       inkscape:collect="always"
       xlink:href="#bg-gradient"
       id="linearGradient2611"
       gradientUnits="userSpaceOnUse"
       x1="562"
       y1="669.5"
       x2="606"
       y2="669.5" />
    <linearGradient
       inkscape:collect="always"
       xlink:href="#linearGradient888"
       id="linearGradient2613"
       gradientUnits="userSpaceOnUse"
       x1="579.5"
       y1="-180.5"
       x2="588.26953"
       y2="-142.25195" />
    <linearGradient
       inkscape:collect="always"
       xlink:href="#linearGradient6886"
       id="linearGradient2615"
       gradientUnits="userSpaceOnUse"
       x1="578.09155"
       y1="-145.99738"
       x2="566.27075"
       y2="-190.11331" />
  </defs>
  <g
     inkscape:label="Camada 1"
     inkscape:groupmode="layer"
     id="layer1">
    <g
       id="use6465"
       style="display:inline;fill:#c9b8a7;fill-opacity:1;stroke:#a08f7f;stroke-opacity:1;enable-background:new"
       transform="translate(-10.000103,284)">
      <g
         transform="matrix(4,0,0,4,16.000006,-6796)"
         style="display:inline;enable-background:new"
         id="g2587"
         inkscape:label="#g3169"
         inkscape:export-filename="/var/home/cleomenezesjr/Projects/Custom-Adwaita-Folder-Icons/Icons/Rust/dropbox_default.png"
         inkscape:export-xdpi="18.000002"
         inkscape:export-ydpi="18.000002">
        <title
           id="title2569">folder</title>
        <rect
           y="1642"
           x="-1.5000001e-06"
           height="128"
           width="128"
           id="rect2571"
           style="display:inline;opacity:1;vector-effect:none;fill:none;fill-opacity:1;stroke:none;stroke-width:5;stroke-linecap:butt;stroke-linejoin:miter;stroke-miterlimit:4;stroke-dasharray:none;stroke-dashoffset:0;stroke-opacity:1;marker:none;marker-start:none;marker-mid:none;marker-end:none;paint-order:normal;enable-background:new" />
        <g
           transform="matrix(0.25,0,0,0.25,-1.5e-6,1695)"
           id="g2585">
          <path
             inkscape:connector-curvature="0"
             id="path2573"
             d="m 88,-162 c 0,0 -40,0 -40,40 L 47.964844,6 h 0.0332 L 47.964844,254.0938 424,254 c 40,0 40,-40 40,-40 V 6 -42 -90 c 0,0 0,-40 -40,-40 H 224 l -32,-32 z"
             style="display:inline;opacity:0.2;vector-effect:none;fill:#000000;fill-opacity:1;stroke:none;stroke-width:26.0669;stroke-linecap:butt;stroke-linejoin:miter;stroke-miterlimit:4;stroke-dasharray:none;stroke-dashoffset:0;stroke-opacity:1;marker:none;marker-start:none;marker-mid:none;marker-end:none;paint-order:normal;filter:url(#filter1302);enable-background:new" />
          <path
             style="display:inline;opacity:1;vector-effect:none;fill:url(#linearGradient2607);fill-opacity:1;stroke:none;stroke-width:26.0669;stroke-linecap:butt;stroke-linejoin:miter;stroke-miterlimit:4;stroke-dasharray:none;stroke-dashoffset:0;stroke-opacity:1;marker:none;marker-start:none;marker-mid:none;marker-end:none;paint-order:normal;enable-background:new"
             d="M 208,672 H 104 c 0,0 -40,0 -40,40 v 128 h 416 v -96 c 0,0 0,-40 -40,-40 H 240 Z"
             transform="translate(-16,-836)"
             id="path2575"
             inkscape:connector-curvature="0"
             sodipodi:nodetypes="ccccccccc" />
          <path
             id="path2577"
             d="m 256,-80 -32,32 H 88 c 0,0 -40,0 -40,40 v 264 h 376 c 40,0 40,-40 40,-40 V -40 c 0,-40 -40,-40 -40,-40 z"
             style="display:inline;opacity:0.1;vector-effect:none;fill:#000000;fill-opacity:1;stroke:none;stroke-width:26.0669;stroke-linecap:butt;stroke-linejoin:miter;stroke-miterlimit:4;stroke-dasharray:none;stroke-dashoffset:0;stroke-opacity:1;marker:none;marker-start:none;marker-mid:none;marker-end:none;paint-order:normal;filter:url(#filter1529);enable-background:new"
             inkscape:connector-curvature="0"
             sodipodi:nodetypes="cccccccccc"
             clip-path="url(#clipPath1509)" />
          <path
             sodipodi:nodetypes="cccccccccc"
             inkscape:connector-curvature="0"
             style="display:inline;opacity:1;vector-effect:none;fill:url(#linearGradient2609);fill-opacity:1;stroke:none;stroke-width:26.0669;stroke-linecap:butt;stroke-linejoin:miter;stroke-miterlimit:4;stroke-dasharray:none;stroke-dashoffset:0;stroke-opacity:1;marker:none;marker-start:none;marker-mid:none;marker-end:none;paint-order:normal;enable-background:new"
             d="m 256,-84 -32,32 H 88 c 0,0 -40,0 -40,40 v 264 h 376 c 40,0 40,-40 40,-40 V -44 c 0,-40 -40,-40 -40,-40 z"
             id="path2579" />
          <path
             style="font-variation-settings:normal;display:inline;opacity:1;vector-effect:none;fill:#99c1f1;fill-opacity:1;stroke:none;stroke-width:26.0669;stroke-linecap:butt;stroke-linejoin:miter;stroke-miterlimit:4;stroke-dasharray:none;stroke-dashoffset:0;stroke-opacity:1;-inkscape-stroke:none;marker:none;marker-start:none;marker-mid:none;marker-end:none;paint-order:normal;enable-background:new;stop-color:#000000;stop-opacity:1"
             d="m 480,1042 c 0,0 0,40 -40,40 l -375.998047,0.094 -0.0039,6 L 440,1088 c 40,0 40,-40 40,-40 z"
             transform="translate(-16,-836)"
             id="path2581"
             inkscape:connector-curvature="0" />
          <path
             style="display:inline;opacity:0.3;vector-effect:none;fill:#ffffff;fill-opacity:1;stroke:none;stroke-width:26.0669;stroke-linecap:butt;stroke-linejoin:miter;stroke-miterlimit:4;stroke-dasharray:none;stroke-dashoffset:0;stroke-opacity:1;marker:none;marker-start:none;marker-mid:none;marker-end:none;paint-order:normal;enable-background:new"
             d="m 272,752 -32,32 H 104 c 0,0 -40,0 -40,40 v 4 c 0,-40 40,-42 40,-42 h 136.59099 l 32,-32 H 440 c 5.38035,0 40,2 40,42 v -4 c 0,-40 -40,-40 -40,-40 z"
             id="path2583"
             inkscape:connector-curvature="0"
             sodipodi:nodetypes="cccsccccccscc"
             transform="translate(-16,-836)" />
        </g>
      </g>
      <path
         style="display:inline;opacity:1;vector-effect:none;fill:url(#linearGradient2611);fill-opacity:1;stroke:#1c71d8;stroke-width:1;stroke-linecap:butt;stroke-linejoin:miter;stroke-miterlimit:4;stroke-dasharray:none;stroke-dashoffset:0;stroke-opacity:1;marker:none;marker-start:none;marker-mid:none;marker-end:none;paint-order:normal;enable-background:new"
         d="m 566,658.5 c 0,0 -3.5,0 -3.5,3.5 v 18.5 h 43 V 666 c 0,0 0,-3.5 -3.5,-3.5 h -20.5 l -4,-4 z"
         id="path2589"
         inkscape:connector-curvature="0"
         sodipodi:nodetypes="cscccsccc"
         transform="translate(0,-852)"
         inkscape:export-filename="/var/home/cleomenezesjr/Projects/Custom-Adwaita-Folder-Icons/Icons/Rust/rust_64x64.png"
         inkscape:export-xdpi="139.63637"
         inkscape:export-ydpi="139.63637" />
      <path
         id="path2591"
         d="m 566,-180.5 c 0,0 -3.5,0 -3.5,3.5 v 26.5 H 601 c 0,0 4.5,0 4.5,-4.5 v -26 c 0,0 0,-3.5 -3.5,-3.5 h -18.5 l -4,4 z"
         style="display:inline;opacity:1;vector-effect:none;fill:url(#linearGradient2613);fill-opacity:1;stroke:url(#linearGradient2615);stroke-width:1;stroke-linecap:butt;stroke-linejoin:miter;stroke-miterlimit:4;stroke-dasharray:none;stroke-dashoffset:0;stroke-opacity:1;marker:none;marker-start:none;marker-mid:none;marker-end:none;paint-order:normal;enable-background:new"
         inkscape:connector-curvature="0"
         sodipodi:nodetypes="cccccccccc"
         inkscape:export-filename="/var/home/cleomenezesjr/Projects/Custom-Adwaita-Folder-Icons/Icons/Rust/rust_64x64.png"
         inkscape:export-xdpi="139.63637"
         inkscape:export-ydpi="139.63637" />
      <path
         style="fill:#428ce6;fill-opacity:1;fill-rule:evenodd;stroke:#428ce6;stroke-width:1.09116;stroke-opacity:1;paint-order:fill markers stroke"
         d="m 270.48951,155.22789 c -0.41813,-0.48816 -1.59107,-2.2795 -2.60651,-3.9806 -2.47628,-4.14807 -3.30871,-4.13406 -7.29164,0.12385 -2.95849,3.16276 -4.28669,3.82237 -5.23053,2.59808 -0.26228,-0.34027 -1.08324,-2.28449 -1.82441,-4.32041 -1.97759,-5.43268 -2.60582,-5.59855 -7.41581,-1.95721 -5.01207,3.79423 -5.65359,3.43288 -6.7594,-3.80676 -0.73755,-4.82864 -1.36864,-5.07779 -6.63796,-2.62035 -3.46589,1.61647 -4.10318,1.77127 -4.96588,1.20676 -0.8858,-0.57973 -0.97585,-1.11183 -0.85778,-5.06822 0.11399,-3.81798 0.002,-4.53657 -0.80895,-5.27198 -0.89121,-0.80661 -1.15076,-0.79791 -4.91546,0.16323 -4.90948,1.25347 -5.37744,1.25673 -6.02847,0.0397 -0.39249,-0.73349 -0.24714,-2.01084 0.58701,-5.15964 1.07495,-4.05785 1.08118,-4.2153 0.20517,-5.18335 -0.81483,-0.90038 -1.30939,-0.96956 -5.04373,-0.70606 -6.26613,0.44215 -6.84399,-0.48271 -3.92415,-6.28072 1.47008,-2.91906 1.64695,-3.6148 1.17982,-4.64023 -0.47776,-1.04838 -1.07433,-1.28282 -4.56543,-1.79325 -6.74676,-0.98647 -7.03834,-1.56589 -3.2923,-6.54123 3.64954,-4.847186 3.45766,-5.58378 -1.96213,-7.531685 -6.15508,-2.212262 -6.3212,-2.868199 -1.74924,-6.907174 4.45461,-3.935177 4.42697,-4.90176 -0.22037,-7.709654 -1.89037,-1.142176 -3.69023,-2.381805 -3.99973,-2.754815 -1.0169,-1.225184 -0.0433,-2.449923 3.72308,-4.683115 4.88499,-2.896354 4.93271,-3.649599 0.49702,-7.844853 -1.7691,-1.673089 -3.21653,-3.37124 -3.21653,-3.773445 0,-0.976163 1.66667,-2.014252 5.16853,-3.219089 5.14735,-1.770984 5.34313,-2.597945 1.75937,-7.432181 -3.70748,-5.001133 -3.44468,-5.557551 3.05346,-6.466633 5.70686,-0.798359 6.0362,-1.406969 3.57084,-6.598292 -0.96443,-2.030763 -1.68032,-4.208523 -1.59092,-4.839543 0.15547,-1.097063 0.3881,-1.1581 5.30666,-1.394733 6.48434,-0.311973 6.51916,-0.354432 5.06081,-6.16896 -1.53408,-6.116624 -1.04417,-6.524577 5.72506,-4.766122 3.19552,0.830058 3.66733,0.848338 4.62354,0.178544 0.99071,-0.693977 1.04112,-1.014204 0.72374,-4.59952 -0.58893,-6.6531374 0.20857,-7.2862222 5.87906,-4.666162 5.46281,2.523936 6.26615,2.06394 7.00345,-4.010222 0.67461,-5.5574035 1.78026,-5.9128689 6.75923,-2.1730402 4.43779,3.3333509 5.38113,3.1369686 6.86608,-1.4299677 2.16679,-6.6637526 3.08882,-6.9356233 7.55046,-2.2262655 4.00529,4.2275427 4.68244,4.138198 7.65033,-1.00904235 1.16552,-2.02132955 2.42038,-3.79084065 2.7886,-3.93223165 1.10716,-0.4247581 2.49236,0.9142438 4.50368,4.35345237 2.75964,4.71879483 3.59174,4.78514073 7.39425,0.59062473 2.95831,-3.2633183 4.64179,-4.0778968 5.55722,-2.6886193 0.2202,0.3340871 0.97127,2.26887216 1.66905,4.299196 1.03482,3.0110578 1.50964,3.7721161 2.57538,4.1272856 1.13101,0.3769904 1.7519,0.098778 4.61956,-2.0723415 3.06713,-2.3219497 5.21829,-3.0952443 5.83485,-2.0975542 0.13947,0.2257225 0.48837,1.9514467 0.77527,3.8350715 0.28691,1.8834781 0.63467,3.9223522 0.77281,4.5305192 0.43142,1.899697 2.21645,1.859153 6.61155,-0.149941 3.7492,-1.7137786 4.08946,-1.7854333 4.91728,-1.0363183 0.7611,0.6888163 0.85957,1.4305593 0.68274,5.1437033 -0.17916,3.762385 -0.0844,4.449136 0.71315,5.16891 0.86231,0.778014 1.18564,0.765187 5.17274,-0.206261 6.31529,-1.538627 6.61984,-1.208965 5.05675,5.473663 -1.17926,5.041673 -1.0146,5.222281 5.041,5.531599 6.35744,0.324651 6.51411,0.557599 3.99143,5.933217 -2.62597,5.595882 -2.37095,6.079467 3.63965,6.900827 3.55329,0.485502 4.61354,0.817524 5.01687,1.571211 0.59203,1.10635 0.58375,1.123746 -2.58543,5.455965 -3.18933,4.359794 -2.97267,4.959704 2.54123,7.036763 5.91365,2.227591 6.00662,2.619032 1.60677,6.764157 -4.52907,4.267056 -4.49773,4.968845 0.35067,7.849127 1.83383,1.089543 3.60987,2.312955 3.94675,2.718843 0.97866,1.179332 -0.0529,2.434589 -3.85863,4.6955 -4.89096,2.905644 -4.93358,3.437587 -0.60828,7.59495 1.93941,1.864166 3.52621,3.562022 3.52621,3.773149 0,1.059905 -1.60185,2.103888 -5.1146,3.333203 -5.39751,1.889076 -5.56992,2.515231 -2.04528,7.42776 1.4884,2.07458 2.70621,3.95537 2.70621,4.17947 0,1.11595 -1.84687,1.91194 -5.70865,2.46012 -5.71057,0.81057 -5.95473,1.30595 -3.39942,6.89608 2.51157,5.49431 2.35167,5.72003 -4.05253,5.72003 -4.81516,0 -4.87747,0.0148 -5.33283,1.30214 -0.32301,0.91308 -0.21646,2.27463 0.35644,4.55545 1.59792,6.36121 1.11176,6.86794 -5.07401,5.28862 -5.65956,-1.445 -6.07232,-1.13789 -5.968,4.44162 0.10281,5.49283 0.12857,5.33052 -0.94358,5.90432 -0.71892,0.38481 -1.80001,0.0738 -4.82905,-1.39163 -3.17276,-1.53421 -4.11224,-1.79385 -5.02269,-1.38751 -1.20073,0.53579 -1.32783,0.88726 -2.06399,5.70793 -0.50549,3.31005 -1.14419,4.52786 -2.37469,4.52786 -0.40968,0 -2.29527,-1.14924 -4.1902,-2.55401 -4.51407,-3.34646 -5.49296,-3.12384 -7.08851,1.61176 -2.21896,6.58591 -2.77631,6.7525 -7.21347,2.15714 -4.12028,-4.26737 -4.76068,-4.20485 -7.82793,0.76457 -2.42042,3.92146 -3.69034,4.70482 -5.05173,3.11491 z m 10.79677,-20.67964 c 4.86055,-0.78833 11.66814,-2.76764 14.54599,-4.22915 l 1.76478,-0.89627 0.84741,-5.5882 c 1.33978,-8.83548 1.92671,-9.26985 10.57727,-7.82689 l 5.82951,0.97248 1.89767,-2.09106 c 3.75158,-4.13376 4.47895,-3.84851 -9.81373,-3.84851 -14.04754,0 -15.06014,-0.1791 -17.19,-3.04037 -1.6096,-2.16229 -2.60353,-4.98831 -3.89081,-11.062902 -1.38665,-6.543606 -2.68239,-9.877545 -4.7121,-12.124155 -2.36554,-2.618293 -4.38734,-3.038335 -13.79675,-2.866277 l -7.91764,0.144484 v 5.443288 5.443442 l 6.80422,0.137106 6.8042,0.137118 v 8.893416 8.89339 h -24.24772 c -13.33626,0 -24.24775,0.18031 -24.24775,0.40059 0,0.22027 1.05775,1.55086 2.35059,2.9568 l 2.35052,2.55608 5.79559,-0.97234 c 8.6422,-1.4497 9.15533,-1.06712 10.55137,7.86741 l 0.88019,5.6332 3.01543,1.34151 c 8.87429,3.94814 21.3872,5.41349 31.80176,3.72433 z m -41.86181,-5.65486 c 1.0709,-1.07096 1.44647,-1.9159 1.44647,-3.25462 0,-2.56346 -2.18278,-4.70111 -4.80031,-4.70111 -2.30045,0 -3.75898,0.93432 -4.58971,2.93985 -1.99949,4.82718 4.21082,8.74861 7.94355,5.01588 z m 71.89536,0.14152 c 1.79734,-1.79736 1.84095,-5.13189 0.0898,-6.88283 -2.85058,-2.85064 -8.18753,-0.57809 -8.18753,3.48639 0,4.11624 5.19765,6.29635 8.09755,3.39644 z M 233.94303,73.679103 V 54.132359 h -5.19594 c -3.26676,0 -5.19595,0.191077 -5.19595,0.514547 0,0.283076 0.4497,1.396059 0.99935,2.473512 1.83628,3.599471 0.89007,4.883922 -6.36557,8.641001 l -4.77825,2.474247 -0.39326,2.474249 c -0.69327,4.361415 0.15549,14.793745 1.68086,20.660021 l 0.48254,1.855763 h 9.3831 9.38312 z m 87.67556,17.73595 c 1.66025,-1.50236 2.43579,-3.52266 2.73855,-7.133775 l 0.28729,-3.426825 h 3.15954 3.15953 l -0.13843,-6.247396 -0.13843,-6.247398 -5.40687,-2.871733 c -5.15884,-2.739926 -6.65833,-4.078635 -6.69947,-5.980689 -0.0102,-0.445842 1.22804,-3.229113 2.75043,-6.184884 l 2.76797,-5.374288 -0.91229,-1.717762 c -1.74283,-3.281896 -6.48486,-9.191666 -10.36793,-12.921175 -6.88513,-6.612741 -15.18473,-11.439015 -24.1286,-14.030917 -2.41043,-0.698398 -4.75294,-1.270003 -5.2056,-1.270003 -0.45264,0 -2.48755,1.686505 -4.52203,3.747644 -4.24416,4.300078 -5.91584,5.349224 -7.84709,4.925054 -0.79697,-0.175004 -3.06823,-2.020445 -5.52005,-4.48511 -2.2912,-2.303078 -4.53553,-4.187588 -4.98742,-4.187588 -1.72933,0 -9.7661,2.624192 -13.7397,4.486288 -5.43708,2.547821 -11.40064,6.601096 -15.39911,10.466391 l -3.21653,3.109397 33.40249,0.262875 c 33.11248,0.260519 33.42827,0.27246 36.37158,1.376304 11.1969,4.198791 17.21606,15.327016 13.56648,25.081441 -1.11833,2.988943 -5.23149,7.86387 -8.16459,9.676581 l -1.69896,1.050029 2.03872,2.307647 c 2.75503,3.11839 4.70898,6.60478 5.88198,10.494842 0.60114,1.993613 1.50738,3.747348 2.35729,4.56163 2.44327,2.340825 7.31547,2.611219 9.61138,0.53342 z M 283.62144,64.82624 c 2.40359,-1.004325 3.76557,-2.680362 3.76557,-4.634021 0,-2.349372 -0.70873,-3.416799 -3.10937,-4.682524 -1.97844,-1.043248 -2.67641,-1.101043 -13.46816,-1.115048 l -11.3816,-0.01474 -0.13989,5.567134 -0.13992,5.566987 h 11.41367 c 8.62382,0 11.81605,-0.168076 13.05971,-0.687636 z m -67.56483,-3.481377 c 3.57545,-1.848976 3.1821,-7.425546 -0.61208,-8.677711 -3.42799,-1.131411 -6.46901,0.990174 -6.46901,4.512829 0,1.633431 0.29565,2.266367 1.60481,3.436114 1.77053,1.581971 3.4056,1.799589 5.47628,0.728768 z m 117.38967,-0.741301 c 2.54342,-2.543395 1.78342,-6.586347 -1.4933,-7.943632 -4.82717,-1.999361 -8.74866,4.210882 -5.01592,7.943632 1.07092,1.070965 1.91599,1.446482 3.25461,1.446482 1.33863,0 2.18372,-0.375517 3.25461,-1.446482 z M 275.56907,18.202676 c 2.02427,-1.831877 1.42517,-6.293546 -1.0208,-7.60247 -3.17199,-1.6977106 -7.4502,0.665668 -7.4502,4.115493 0,2.020296 1.9153,4.617799 3.60457,4.888343 1.50789,0.241498 3.77134,-0.410312 4.86643,-1.401366 z"
         id="path23757"
         sodipodi:nodetypes="ccsscssssscsssssscssccscscssssssssssscssscscssssscsscssscsssssssscccssscsssssssscsccsssscscccscsscsssssccccccccsssccscsccsssssscsssccsssscsscccccscccccscccsscscscscscscsscssscccscscccsccscsssccsscscsss"
         inkscape:export-filename="/var/home/cleomenezesjr/Projects/Custom-Adwaita-Folder-Icons/Icons/Rust/dropbox_default.png"
         inkscape:export-xdpi="18.000002"
         inkscape:export-ydpi="18.000002" />
      <path
         style="display:inline;fill:#428ce6;fill-opacity:1;fill-rule:evenodd;stroke:#428ce6;stroke-width:0.109654;stroke-opacity:1;paint-order:fill markers stroke;enable-background:new"
         d="m 583.8483,-157.92753 c -0.042,-0.0491 -0.15989,-0.22905 -0.26194,-0.40001 -0.24884,-0.41684 -0.33249,-0.41544 -0.73276,0.0125 -0.2973,0.31784 -0.43077,0.38411 -0.52563,0.26108 -0.0264,-0.0343 -0.10885,-0.22956 -0.18332,-0.43417 -0.19873,-0.54594 -0.26188,-0.56259 -0.74524,-0.19668 -0.50367,0.3813 -0.56815,0.34497 -0.67927,-0.38255 -0.0741,-0.48524 -0.13754,-0.51028 -0.66706,-0.26332 -0.3483,0.16244 -0.41233,0.178 -0.49903,0.12127 -0.0891,-0.0582 -0.098,-0.11173 -0.0862,-0.50932 0.0114,-0.38367 2e-4,-0.45588 -0.0813,-0.52979 -0.0896,-0.081 -0.11566,-0.0802 -0.49396,0.0164 -0.49338,0.12595 -0.54039,0.12628 -0.60581,0.004 -0.0395,-0.0738 -0.0249,-0.20207 0.0589,-0.51851 0.108,-0.40778 0.10864,-0.4236 0.0207,-0.52088 -0.0818,-0.0905 -0.13158,-0.0974 -0.50686,-0.0709 -0.62969,0.0445 -0.68777,-0.0485 -0.39434,-0.63117 0.14773,-0.29333 0.1655,-0.36327 0.11856,-0.46631 -0.048,-0.10536 -0.10796,-0.12891 -0.45879,-0.1802 -0.67801,-0.0992 -0.7073,-0.15736 -0.33085,-0.65735 0.36675,-0.4871 0.34745,-0.56112 -0.19718,-0.75687 -0.61854,-0.22231 -0.63524,-0.28824 -0.17579,-0.69412 0.44766,-0.39545 0.44488,-0.49258 -0.0221,-0.77476 -0.18996,-0.11477 -0.37084,-0.23935 -0.40194,-0.27685 -0.10218,-0.12311 -0.004,-0.24619 0.37415,-0.4706 0.4909,-0.29107 0.49568,-0.36676 0.0501,-0.78835 -0.17779,-0.16813 -0.32324,-0.33878 -0.32324,-0.3792 0,-0.0981 0.16749,-0.20242 0.5194,-0.32349 0.51726,-0.17797 0.53694,-0.26108 0.1768,-0.74688 -0.37257,-0.50258 -0.34616,-0.55849 0.30686,-0.64984 0.57349,-0.0803 0.60658,-0.14139 0.35883,-0.66309 -0.0969,-0.20408 -0.16887,-0.42293 -0.15988,-0.48633 0.0156,-0.11025 0.0389,-0.11638 0.53328,-0.14017 0.65163,-0.0313 0.65514,-0.0355 0.50858,-0.61992 -0.15416,-0.61467 -0.10493,-0.65568 0.57532,-0.47896 0.32112,0.0835 0.36854,0.0852 0.46463,0.0179 0.0996,-0.0696 0.10462,-0.10192 0.0728,-0.46221 -0.0591,-0.6686 0.0209,-0.73221 0.5908,-0.46891 0.54897,0.25363 0.62969,0.2074 0.70379,-0.40301 0.0678,-0.55846 0.17891,-0.59419 0.67925,-0.21838 0.44596,0.33499 0.54077,0.31525 0.68999,-0.14368 0.21774,-0.66966 0.31041,-0.69699 0.75876,-0.22374 0.4025,0.42484 0.47055,0.41587 0.76879,-0.10139 0.11713,-0.20313 0.24324,-0.38094 0.28024,-0.39516 0.11126,-0.0427 0.25047,0.0918 0.45259,0.43749 0.27733,0.47422 0.36094,0.48088 0.74305,0.0593 0.29729,-0.32795 0.46647,-0.40981 0.55848,-0.2702 0.0221,0.0335 0.0976,0.22801 0.16772,0.43205 0.10399,0.30258 0.1517,0.37906 0.25881,0.41475 0.11365,0.0378 0.17605,0.0102 0.46424,-0.20826 0.30821,-0.23334 0.52439,-0.31104 0.58634,-0.21078 0.014,0.0227 0.0491,0.1961 0.0779,0.38539 0.0288,0.18928 0.0638,0.39418 0.0776,0.45528 0.0434,0.19092 0.22275,0.18684 0.66441,-0.0151 0.37678,-0.17223 0.41097,-0.17943 0.49416,-0.10416 0.0765,0.0693 0.0863,0.14377 0.0685,0.51691 -0.018,0.37809 -0.008,0.4471 0.0716,0.51944 0.0866,0.0783 0.11916,0.0769 0.51982,-0.0208 0.63465,-0.15462 0.66525,-0.1215 0.50816,0.55005 -0.11849,0.50666 -0.10194,0.5248 0.50659,0.55589 0.63888,0.0326 0.65461,0.056 0.4011,0.59624 -0.26389,0.56235 -0.23826,0.61093 0.36576,0.69348 0.35708,0.0488 0.46362,0.0821 0.50416,0.1579 0.0595,0.11117 0.0587,0.11293 -0.25981,0.54827 -0.32051,0.43814 -0.29873,0.49842 0.25537,0.70715 0.59427,0.22386 0.60362,0.26318 0.16147,0.67974 -0.45514,0.42881 -0.45199,0.49934 0.0352,0.78878 0.18427,0.10948 0.36277,0.23243 0.39662,0.27322 0.0983,0.11851 -0.005,0.24466 -0.38777,0.47185 -0.4915,0.29201 -0.49579,0.34547 -0.0611,0.76324 0.19489,0.18734 0.35435,0.35797 0.35435,0.37917 0,0.10653 -0.16098,0.21142 -0.51398,0.33497 -0.54241,0.18984 -0.55973,0.25275 -0.20553,0.74644 0.14957,0.20847 0.27194,0.39748 0.27194,0.42 0,0.11214 -0.18558,0.19212 -0.57366,0.24722 -0.57388,0.0815 -0.5984,0.13123 -0.34162,0.69301 0.2524,0.55214 0.23632,0.5748 -0.40725,0.5748 -0.48388,0 -0.49015,0.002 -0.53589,0.13086 -0.0324,0.0918 -0.0219,0.22859 0.0358,0.45779 0.16058,0.63925 0.11173,0.69017 -0.5099,0.53146 -0.56874,-0.14521 -0.61021,-0.11434 -0.59974,0.44636 0.0103,0.55198 0.0129,0.53567 -0.0948,0.59333 -0.0723,0.0388 -0.18087,0.007 -0.48527,-0.13984 -0.31884,-0.15418 -0.41325,-0.18027 -0.50473,-0.13945 -0.12067,0.0538 -0.13344,0.0892 -0.20742,0.57361 -0.0507,0.33264 -0.11499,0.45502 -0.23864,0.45502 -0.0412,0 -0.23066,-0.11549 -0.42109,-0.25667 -0.45361,-0.33629 -0.55199,-0.31391 -0.71232,0.16197 -0.22301,0.66184 -0.27901,0.67859 -0.72491,0.21678 -0.41406,-0.42883 -0.47841,-0.42255 -0.78665,0.0768 -0.24323,0.39409 -0.37084,0.47281 -0.50766,0.31304 z m 1.08498,-2.07813 c 0.48845,-0.0793 1.17257,-0.27813 1.46177,-0.425 l 0.17735,-0.0901 0.0851,-0.56156 c 0.13463,-0.88789 0.19361,-0.93156 1.06293,-0.78654 l 0.58582,0.0977 0.1907,-0.21013 c 0.37701,-0.4154 0.45009,-0.38674 -0.9862,-0.38674 -1.41166,0 -1.51342,-0.018 -1.72747,-0.30554 -0.16174,-0.21729 -0.26162,-0.50129 -0.39099,-1.11173 -0.13934,-0.65759 -0.26955,-0.99263 -0.47351,-1.21838 -0.23773,-0.26312 -0.44091,-0.30534 -1.38648,-0.28805 l -0.79566,0.0145 v 0.54701 0.54702 l 0.68377,0.0137 0.68378,0.0138 v 0.89372 0.89371 h -2.43672 c -1.34019,0 -2.43671,0.0181 -2.43671,0.0402 0,0.0221 0.10629,0.15585 0.23622,0.29715 l 0.2362,0.25686 0.58242,-0.0977 c 0.86847,-0.1457 0.92004,-0.10724 1.06033,0.79061 l 0.0885,0.5661 0.30303,0.1348 c 0.89181,0.39676 2.14925,0.54402 3.19583,0.37428 z m -4.20678,-0.56826 c 0.10762,-0.10764 0.14536,-0.19254 0.14536,-0.32708 0,-0.2576 -0.21936,-0.47242 -0.4824,-0.47242 -0.23117,0 -0.37774,0.0939 -0.46122,0.29543 -0.20094,0.4851 0.42315,0.87918 0.79826,0.50407 z m 7.22493,0.0142 c 0.18061,-0.18062 0.185,-0.51572 0.009,-0.69168 -0.28645,-0.28645 -0.82278,-0.058 -0.82278,0.35036 0,0.41366 0.52232,0.63275 0.81373,0.34132 z m -7.77577,-5.56281 v -1.9643 h -0.52215 c -0.32829,0 -0.52214,0.0191 -0.52214,0.0518 0,0.0284 0.0451,0.1403 0.10047,0.24857 0.18453,0.36173 0.0895,0.49079 -0.63968,0.86836 l -0.48019,0.24863 -0.0396,0.24865 c -0.0695,0.43828 0.0156,1.48666 0.16893,2.07618 l 0.0485,0.18648 h 0.94294 0.94292 z m 8.81072,1.78232 c 0.16683,-0.15098 0.24478,-0.35402 0.27519,-0.7169 l 0.0289,-0.34436 h 0.31751 0.31751 l -0.014,-0.62782 -0.014,-0.6278 -0.54335,-0.28859 c -0.51842,-0.27535 -0.66912,-0.40988 -0.67324,-0.60103 -8.1e-4,-0.0447 0.12341,-0.3245 0.2764,-0.62154 l 0.27815,-0.54005 -0.0917,-0.17263 c -0.17514,-0.3298 -0.65167,-0.92368 -1.04189,-1.29848 -0.69191,-0.66453 -1.52595,-1.14952 -2.42475,-1.41 -0.24221,-0.0702 -0.47763,-0.12761 -0.52312,-0.12761 -0.0454,0 -0.24997,0.16947 -0.45442,0.3766 -0.42651,0.43211 -0.5945,0.53756 -0.78857,0.49492 -0.0801,-0.0175 -0.30834,-0.20303 -0.55472,-0.45072 -0.23026,-0.23142 -0.45579,-0.4208 -0.5012,-0.4208 -0.17379,0 -0.98142,0.2637 -1.38073,0.45083 -0.54637,0.25603 -1.14567,0.66335 -1.54749,1.05179 l -0.32324,0.31248 3.3567,0.0264 c 3.32754,0.0261 3.35927,0.0274 3.65505,0.13832 1.1252,0.42194 1.73008,1.54024 1.36332,2.52049 -0.11238,0.30036 -0.52572,0.79025 -0.82046,0.97241 l -0.17075,0.10551 0.20489,0.23191 c 0.27686,0.31338 0.47321,0.66373 0.59109,1.05466 0.0604,0.20034 0.15148,0.37657 0.23689,0.4584 0.24553,0.23523 0.73515,0.2624 0.96587,0.0536 z m -3.81841,-2.67196 c 0.24152,-0.10099 0.37839,-0.26937 0.37839,-0.4657 0,-0.23608 -0.0712,-0.34335 -0.31247,-0.47055 -0.19882,-0.10485 -0.26894,-0.11065 -1.35344,-0.11206 l -1.14375,-0.002 -0.0142,0.55947 -0.0141,0.55943 h 1.147 c 0.86662,0 1.18742,-0.0169 1.3124,-0.0691 z m -6.78976,-0.34986 c 0.35931,-0.18581 0.31979,-0.74622 -0.0614,-0.87205 -0.34449,-0.1137 -0.65009,0.0995 -0.65009,0.45351 0,0.16415 0.0298,0.22774 0.16126,0.3453 0.17794,0.15897 0.34224,0.18083 0.55033,0.0733 z m 11.79674,-0.0745 c 0.25561,-0.2556 0.17924,-0.66188 -0.15004,-0.79828 -0.48511,-0.20091 -0.87919,0.42317 -0.50407,0.79828 0.10762,0.10761 0.19254,0.14535 0.32706,0.14535 0.13452,0 0.21945,-0.0377 0.32705,-0.14535 z m -5.81619,-4.26096 c 0.20342,-0.18408 0.14321,-0.63246 -0.10259,-0.76399 -0.31876,-0.1706 -0.74869,0.067 -0.74869,0.41358 0,0.20302 0.19247,0.46406 0.36224,0.49124 0.15153,0.0244 0.37899,-0.0412 0.48904,-0.14083 z"
         id="path23757-3"
         sodipodi:nodetypes="ccsscssssscsssssscssccscscssssssssssscssscscssssscsscssscsssssssscccssscsssssssscsccsssscscccscsscsssssccccccccsssccscsccsssssscsssccsssscsscccccscccccscccsscscscscscscsscssscccscscccsccscsssccsscscsss"
         inkscape:export-filename="/var/home/cleomenezesjr/Projects/Custom-Adwaita-Folder-Icons/Icons/Rust/rust_64x64.png"
         inkscape:export-xdpi="139.63637"
         inkscape:export-ydpi="139.63637" />
    </g>
  </g>
</svg>
