<?xml version="1.0" encoding="UTF-8" standalone="no"?>
<!-- Created with Inkscape (http://www.inkscape.org/) -->

<svg
   width="600.0px"
   height="600.0px"
   viewBox="0 0 600.0 600.0"
   version="1.1"
   id="SVGRoot"
   sodipodi:docname="sync_preset.svg"
   inkscape:version="1.2.1 (9c6d41e410, 2022-07-14)"
   xmlns:inkscape="http://www.inkscape.org/namespaces/inkscape"
   xmlns:sodipodi="http://sodipodi.sourceforge.net/DTD/sodipodi-0.dtd"
   xmlns:xlink="http://www.w3.org/1999/xlink"
   xmlns="http://www.w3.org/2000/svg"
   xmlns:svg="http://www.w3.org/2000/svg">
  <sodipodi:namedview
     id="namedview2203"
     pagecolor="#505050"
     bordercolor="#eeeeee"
     borderopacity="1"
     inkscape:pageshadow="0"
     inkscape:pageopacity="0"
     inkscape:pagecheckerboard="0"
     inkscape:document-units="px"
     showgrid="false"
     inkscape:zoom="2.5620932"
     inkscape:cx="520.27772"
     inkscape:cy="76.890256"
     inkscape:window-width="1920"
     inkscape:window-height="1011"
     inkscape:window-x="0"
     inkscape:window-y="0"
     inkscape:window-maximized="1"
     inkscape:current-layer="use6465"
     showguides="true"
     inkscape:guide-bbox="true"
     inkscape:lockguides="false"
     inkscape:snap-page="true"
     inkscape:snap-center="true"
     inkscape:snap-object-midpoints="true"
     inkscape:snap-midpoints="true"
     inkscape:object-paths="true"
     inkscape:snap-intersection-paths="true"
     inkscape:showpageshadow="0"
     inkscape:deskcolor="#505050">
    <inkscape:grid
       type="xygrid"
       id="grid2209" />
    <sodipodi:guide
       position="358,320"
       orientation="0,-1"
       id="guide2818"
       inkscape:locked="false" />
    <sodipodi:guide
       position="330.8748,160"
       orientation="0,-1"
       id="guide2820"
       inkscape:locked="false" />
    <sodipodi:guide
       position="358,160"
       orientation="1,0"
       id="guide2822"
       inkscape:locked="false" />
    <sodipodi:guide
       position="166,320"
       orientation="1,0"
       id="guide2824"
       inkscape:locked="false" />
    <sodipodi:guide
       position="584,490"
       orientation="0,-1"
       id="guide4538"
       inkscape:locked="false" />
    <sodipodi:guide
       position="584,474"
       orientation="0,-1"
       id="guide4540"
       inkscape:locked="false" />
    <sodipodi:guide
       position="564,490"
       orientation="1,0"
       id="guide4542"
       inkscape:locked="false" />
    <sodipodi:guide
       position="584,474"
       orientation="1,0"
       id="guide4544"
       inkscape:locked="false" />
  </sodipodi:namedview>
  <defs
     id="defs2198">
    <filter
       inkscape:collect="always"
       style="color-interpolation-filters:sRGB"
       id="filter1302"
       x="-0.012000846"
       width="1.0240017"
       y="-0.011999155"
       height="1.0239983">
      <feGaussianBlur
         inkscape:collect="always"
         stdDeviation="2.0803224"
         id="feGaussianBlur1304" />
    </filter>
    <linearGradient
       id="bg-gradient-2"
       inkscape:swatch="gradient">
      <stop
         style="stop-color:#3584e4;stop-opacity:1"
         offset="0"
         id="stop13402" />
      <stop
         style="stop-color:#62a0ea;stop-opacity:1"
         offset="1"
         id="stop13404" />
    </linearGradient>
    <clipPath
       clipPathUnits="userSpaceOnUse"
       id="clipPath1509">
      <path
         sodipodi:nodetypes="ccccccccc"
         inkscape:connector-curvature="0"
         id="path1511"
         d="M 192,-164 H 88 c 0,0 -40,0 -40,40 V 4 h 416 v -96 c 0,0 0,-40 -40,-40 H 224 Z"
         style="display:inline;opacity:1;vector-effect:none;fill:#c9b8a7;fill-opacity:1;stroke:none;stroke-width:26.0669;stroke-linecap:butt;stroke-linejoin:miter;stroke-miterlimit:4;stroke-dasharray:none;stroke-dashoffset:0;stroke-opacity:1;marker:none;marker-start:none;marker-mid:none;marker-end:none;paint-order:normal;enable-background:new" />
    </clipPath>
    <filter
       inkscape:collect="always"
       style="color-interpolation-filters:sRGB"
       id="filter1529"
       x="-0.10846153"
       width="1.2169231"
       y="-0.13428571"
       height="1.2685714">
      <feGaussianBlur
         inkscape:collect="always"
         stdDeviation="18.8"
         id="feGaussianBlur1531" />
    </filter>
    <linearGradient
       inkscape:collect="always"
       id="linearGradient888">
      <stop
         style="stop-color:#99c1f1;stop-opacity:1"
         offset="0"
         id="stop884" />
      <stop
         style="stop-color:#c3e5e7;stop-opacity:1"
         offset="1"
         id="stop886" />
    </linearGradient>
    <linearGradient
       id="bg-gradient"
       inkscape:swatch="gradient">
      <stop
         style="stop-color:#3584e4;stop-opacity:1"
         offset="0"
         id="stop9546" />
      <stop
         style="stop-color:#1a5fb4;stop-opacity:1"
         offset="1"
         id="stop9548" />
    </linearGradient>
    <linearGradient
       inkscape:collect="always"
       id="linearGradient6886">
      <stop
         style="stop-color:#99c1f1;stop-opacity:1"
         offset="0"
         id="stop6882" />
      <stop
         style="stop-color:#589ae8;stop-opacity:1"
         offset="1"
         id="stop6884" />
    </linearGradient>
    <clipPath
       clipPathUnits="userSpaceOnUse"
       id="clipPath713">
      <path
         sodipodi:nodetypes="ccccccccc"
         inkscape:connector-curvature="0"
         id="path711"
         d="M 192,-164 H 88 c 0,0 -40,0 -40,40 V 4 h 416 v -96 c 0,0 0,-40 -40,-40 H 224 Z"
         style="display:inline;opacity:1;vector-effect:none;fill:#c9b8a7;fill-opacity:1;stroke:none;stroke-width:26.0669;stroke-linecap:butt;stroke-linejoin:miter;stroke-miterlimit:4;stroke-dasharray:none;stroke-dashoffset:0;stroke-opacity:1;marker:none;marker-start:none;marker-mid:none;marker-end:none;paint-order:normal;enable-background:new" />
    </clipPath>
    <linearGradient
       inkscape:collect="always"
       xlink:href="#bg-gradient-2"
       id="linearGradient2607"
       gradientUnits="userSpaceOnUse"
       x1="64"
       y1="756"
       x2="480"
       y2="756" />
    <linearGradient
       inkscape:collect="always"
       xlink:href="#linearGradient888"
       id="linearGradient2609"
       gradientUnits="userSpaceOnUse"
       x1="152.89844"
       y1="-38.796875"
       x2="447.30859"
       y2="316" />
    <linearGradient
       inkscape:collect="always"
       xlink:href="#bg-gradient"
       id="linearGradient2611"
       gradientUnits="userSpaceOnUse"
       x1="562"
       y1="669.5"
       x2="606"
       y2="669.5" />
    <linearGradient
       inkscape:collect="always"
       xlink:href="#linearGradient888"
       id="linearGradient2613"
       gradientUnits="userSpaceOnUse"
       x1="579.5"
       y1="-180.5"
       x2="588.26953"
       y2="-142.25195" />
    <linearGradient
       inkscape:collect="always"
       xlink:href="#linearGradient6886"
       id="linearGradient2615"
       gradientUnits="userSpaceOnUse"
       x1="578.09155"
       y1="-145.99738"
       x2="566.27075"
       y2="-190.11331" />
  </defs>
  <g
     inkscape:label="Camada 1"
     inkscape:groupmode="layer"
     id="layer1">
    <g
       id="use6465"
       style="display:inline;fill:#c9b8a7;fill-opacity:1;stroke:#a08f7f;stroke-opacity:1;enable-background:new"
       transform="translate(-10.000103,284)">
      <g
         transform="matrix(4,0,0,4,16.000006,-6796)"
         style="display:inline;enable-background:new"
         id="g2587"
         inkscape:label="#g3169"
         inkscape:export-filename="/var/home/cleomenezesjr/Projects/Custom-Adwaita-Folder-Icons/Icons/Rust/dropbox_default.png"
         inkscape:export-xdpi="18.000002"
         inkscape:export-ydpi="18.000002">
        <title
           id="title2569">folder</title>
        <rect
           y="1642"
           x="-1.5000001e-06"
           height="128"
           width="128"
           id="rect2571"
           style="display:inline;opacity:1;vector-effect:none;fill:none;fill-opacity:1;stroke:none;stroke-width:5;stroke-linecap:butt;stroke-linejoin:miter;stroke-miterlimit:4;stroke-dasharray:none;stroke-dashoffset:0;stroke-opacity:1;marker:none;marker-start:none;marker-mid:none;marker-end:none;paint-order:normal;enable-background:new"
           inkscape:export-filename="camera_default.png"
           inkscape:export-xdpi="18.000002"
           inkscape:export-ydpi="18.000002" />
        <g
           transform="matrix(0.25,0,0,0.25,-1.5e-6,1695)"
           id="g2585">
          <path
             inkscape:connector-curvature="0"
             id="path2573"
             d="m 88,-162 c 0,0 -40,0 -40,40 L 47.964844,6 h 0.0332 L 47.964844,254.0938 424,254 c 40,0 40,-40 40,-40 V 6 -42 -90 c 0,0 0,-40 -40,-40 H 224 l -32,-32 z"
             style="display:inline;opacity:0.2;vector-effect:none;fill:#000000;fill-opacity:1;stroke:none;stroke-width:26.0669;stroke-linecap:butt;stroke-linejoin:miter;stroke-miterlimit:4;stroke-dasharray:none;stroke-dashoffset:0;stroke-opacity:1;marker:none;marker-start:none;marker-mid:none;marker-end:none;paint-order:normal;filter:url(#filter1302);enable-background:new" />
          <path
             style="display:inline;opacity:1;vector-effect:none;fill:url(#linearGradient2607);fill-opacity:1;stroke:none;stroke-width:26.0669;stroke-linecap:butt;stroke-linejoin:miter;stroke-miterlimit:4;stroke-dasharray:none;stroke-dashoffset:0;stroke-opacity:1;marker:none;marker-start:none;marker-mid:none;marker-end:none;paint-order:normal;enable-background:new"
             d="M 208,672 H 104 c 0,0 -40,0 -40,40 v 128 h 416 v -96 c 0,0 0,-40 -40,-40 H 240 Z"
             transform="translate(-16,-836)"
             id="path2575"
             inkscape:connector-curvature="0"
             sodipodi:nodetypes="ccccccccc" />
          <path
             id="path2577"
             d="m 256,-80 -32,32 H 88 c 0,0 -40,0 -40,40 v 264 h 376 c 40,0 40,-40 40,-40 V -40 c 0,-40 -40,-40 -40,-40 z"
             style="display:inline;opacity:0.1;vector-effect:none;fill:#000000;fill-opacity:1;stroke:none;stroke-width:26.0669;stroke-linecap:butt;stroke-linejoin:miter;stroke-miterlimit:4;stroke-dasharray:none;stroke-dashoffset:0;stroke-opacity:1;marker:none;marker-start:none;marker-mid:none;marker-end:none;paint-order:normal;filter:url(#filter1529);enable-background:new"
             inkscape:connector-curvature="0"
             sodipodi:nodetypes="cccccccccc"
             clip-path="url(#clipPath1509)" />
          <path
             sodipodi:nodetypes="cccccccccc"
             inkscape:connector-curvature="0"
             style="display:inline;opacity:1;vector-effect:none;fill:url(#linearGradient2609);fill-opacity:1;stroke:none;stroke-width:26.0669;stroke-linecap:butt;stroke-linejoin:miter;stroke-miterlimit:4;stroke-dasharray:none;stroke-dashoffset:0;stroke-opacity:1;marker:none;marker-start:none;marker-mid:none;marker-end:none;paint-order:normal;enable-background:new"
             d="m 256,-84 -32,32 H 88 c 0,0 -40,0 -40,40 v 264 h 376 c 40,0 40,-40 40,-40 V -44 c 0,-40 -40,-40 -40,-40 z"
             id="path2579" />
          <path
             style="font-variation-settings:normal;display:inline;opacity:1;vector-effect:none;fill:#99c1f1;fill-opacity:1;stroke:none;stroke-width:26.0669;stroke-linecap:butt;stroke-linejoin:miter;stroke-miterlimit:4;stroke-dasharray:none;stroke-dashoffset:0;stroke-opacity:1;-inkscape-stroke:none;marker:none;marker-start:none;marker-mid:none;marker-end:none;paint-order:normal;enable-background:new;stop-color:#000000;stop-opacity:1"
             d="m 480,1042 c 0,0 0,40 -40,40 l -375.998047,0.094 -0.0039,6 L 440,1088 c 40,0 40,-40 40,-40 z"
             transform="translate(-16,-836)"
             id="path2581"
             inkscape:connector-curvature="0" />
          <path
             style="display:inline;opacity:0.3;vector-effect:none;fill:#ffffff;fill-opacity:1;stroke:none;stroke-width:26.0669;stroke-linecap:butt;stroke-linejoin:miter;stroke-miterlimit:4;stroke-dasharray:none;stroke-dashoffset:0;stroke-opacity:1;marker:none;marker-start:none;marker-mid:none;marker-end:none;paint-order:normal;enable-background:new"
             d="m 272,752 -32,32 H 104 c 0,0 -40,0 -40,40 v 4 c 0,-40 40,-42 40,-42 h 136.59099 l 32,-32 H 440 c 5.38035,0 40,2 40,42 v -4 c 0,-40 -40,-40 -40,-40 z"
             id="path2583"
             inkscape:connector-curvature="0"
             sodipodi:nodetypes="cccsccccccscc"
             transform="translate(-16,-836)" />
        </g>
      </g>
      <path
         style="display:inline;opacity:1;vector-effect:none;fill:url(#linearGradient2611);fill-opacity:1;stroke:#1c71d8;stroke-width:1;stroke-linecap:butt;stroke-linejoin:miter;stroke-miterlimit:4;stroke-dasharray:none;stroke-dashoffset:0;stroke-opacity:1;marker:none;marker-start:none;marker-mid:none;marker-end:none;paint-order:normal;enable-background:new"
         d="m 566,658.5 c 0,0 -3.5,0 -3.5,3.5 v 18.5 h 43 V 666 c 0,0 0,-3.5 -3.5,-3.5 h -20.5 l -4,-4 z"
         id="path2589"
         inkscape:connector-curvature="0"
         sodipodi:nodetypes="cscccsccc"
         transform="translate(0,-852)"
         inkscape:export-filename="script_64x64.png"
         inkscape:export-xdpi="139.63637"
         inkscape:export-ydpi="139.63637" />
      <path
         id="path2591"
         d="m 566,-180.5 c 0,0 -3.5,0 -3.5,3.5 v 26.5 H 601 c 0,0 4.5,0 4.5,-4.5 v -26 c 0,0 0,-3.5 -3.5,-3.5 h -18.5 l -4,4 z"
         style="display:inline;opacity:1;vector-effect:none;fill:url(#linearGradient2613);fill-opacity:1;stroke:url(#linearGradient2615);stroke-width:1;stroke-linecap:butt;stroke-linejoin:miter;stroke-miterlimit:4;stroke-dasharray:none;stroke-dashoffset:0;stroke-opacity:1;marker:none;marker-start:none;marker-mid:none;marker-end:none;paint-order:normal;enable-background:new"
         inkscape:connector-curvature="0"
         sodipodi:nodetypes="cccccccccc"
         inkscape:export-filename="/var/home/cleomenezesjr/Projects/Custom-Adwaita-Folder-Icons/Icons/Rust/rust_64x64.png"
         inkscape:export-xdpi="139.63637"
         inkscape:export-ydpi="139.63637" />
      <path
         d="m 270.43766,-3.9878383 c -3.08018,0.045685 -6.1158,0.3119782 -9.15132,0.7142439 -24.106,3.25880995 -45.97989,17.4544484 -58.56851,39.2837624 -3.16955,5.44613 -1.29457,12.454696 4.19625,15.579571 5.44612,3.169557 12.4547,1.294561 15.57956,-4.151567 12.0529,-20.847194 35.75708,-31.873385 59.41671,-27.721818 19.19539,3.392626 34.95357,16.15988 42.45321,33.435822 H 306.2841 c -6.2943,0 -11.428,5.133689 -11.428,11.428004 0,6.294315 5.1337,11.428003 11.428,11.428003 h 45.71202 c 6.29433,0 11.428,-5.133688 11.428,-11.428003 V 18.868168 c 0,-6.294315 -5.13367,-11.4280033 -11.428,-11.4280033 -6.29432,0 -11.428,5.1336883 -11.428,11.4280033 V 34.849541 C 328.87224,15.386171 309.14111,1.3243483 285.8833,-2.7825301 280.70504,-3.6750608 275.52666,-4.0770913 270.43766,-3.9878383 Z M 192.00408,76.008183 c -6.29432,0 -11.428,5.133688 -11.428,11.428003 v 45.712004 c 0,6.29432 5.13368,11.42801 11.428,11.42801 6.29432,0 11.428,-5.13369 11.428,-11.42801 v -15.93668 c 13.03502,21.65068 35.80176,36.20356 61.60402,38.48025 30.93596,2.72308 60.71126,-12.76725 76.24626,-39.68557 3.16946,-5.44612 1.29458,-12.45471 -4.19624,-15.57956 -2.58911,-1.562442 -5.71399,-1.964253 -8.66026,-1.160634 -2.94623,0.758824 -5.44611,2.678364 -6.964,5.312194 -11.11543,19.24007 -32.27518,30.26638 -54.46151,28.34682 -20.93645,-1.83031 -39.01589,-14.95458 -47.3637,-34.060822 h 18.07945 c 6.2943,0 11.428,-5.133687 11.428,-11.428002 0,-6.294315 -5.1337,-11.428003 -11.428,-11.428003 z m 0,0"
         fill="#2e3436"
         id="path232"
         style="fill:#428ce6;fill-opacity:1;stroke:none;stroke-width:11.428" />
      <path
         d="m 583.84385,-173.99879 c -0.30801,0.006 -0.61156,0.0312 -0.91513,0.0714 -2.4106,0.32589 -4.59798,1.74545 -5.85685,3.92838 -0.31694,0.54462 -0.12944,1.24548 0.41963,1.55796 0.54461,0.31695 1.24546,0.12945 1.55795,-0.41516 1.2053,-2.08471 3.57571,-3.18734 5.94167,-2.77217 1.91954,0.33925 3.49537,1.61598 4.24533,3.34357 h -1.80795 c -0.62943,0 -1.14281,0.51337 -1.14281,1.1428 0,0.62943 0.51338,1.14281 1.14281,1.14281 h 4.5712 c 0.62944,0 1.1428,-0.51338 1.1428,-1.14281 v -4.57119 c 0,-0.62944 -0.51336,-1.1428 -1.1428,-1.1428 -0.62943,0 -1.1428,0.51336 -1.1428,1.1428 v 1.59812 c -1.16959,-1.94632 -3.1427,-3.35251 -5.46849,-3.7632 -0.51782,-0.0893 -1.03566,-0.12944 -1.54456,-0.12054 z m -7.84335,7.99962 c -0.62943,0 -1.1428,0.51336 -1.1428,1.14278 v 4.57122 c 0,0.62942 0.51337,1.14279 1.1428,1.14279 0.62944,0 1.1428,-0.51337 1.1428,-1.14279 v -1.59367 c 1.30349,2.16506 3.58017,3.62035 6.1604,3.84802 3.09361,0.27231 6.07113,-1.27672 7.62462,-3.96856 0.31695,-0.54461 0.12946,-1.24548 -0.41962,-1.55795 -0.25891,-0.15624 -0.57139,-0.19643 -0.86603,-0.11607 -0.29462,0.0759 -0.54461,0.26784 -0.69639,0.53121 -1.11155,1.92402 -3.22753,3.02665 -5.44615,2.83469 -2.09365,-0.18302 -3.90159,-1.49546 -4.73639,-3.40607 h 1.80796 c 0.62943,0 1.1428,-0.51338 1.1428,-1.14282 0,-0.62942 -0.51337,-1.14278 -1.1428,-1.14278 z m 0,0"
         fill="#2e3436"
         id="path232-3"
         style="display:inline;fill:#428ce6;fill-opacity:1;stroke:none;stroke-width:1.14281;stroke-opacity:1;enable-background:new" />
    </g>
  </g>
</svg>
