<?xml version="1.0" encoding="UTF-8" standalone="no"?>
<!-- Created with Inkscape (http://www.inkscape.org/) -->

<svg
   width="600.0px"
   height="600.0px"
   viewBox="0 0 600.0 600.0"
   version="1.1"
   id="SVGRoot"
   sodipodi:docname="drawing_preset.svg"
   inkscape:version="1.2.1 (9c6d41e410, 2022-07-14)"
   inkscape:export-filename="graphics_default.png"
   inkscape:export-xdpi="139.636"
   inkscape:export-ydpi="139.636"
   xml:space="preserve"
   xmlns:inkscape="http://www.inkscape.org/namespaces/inkscape"
   xmlns:sodipodi="http://sodipodi.sourceforge.net/DTD/sodipodi-0.dtd"
   xmlns:xlink="http://www.w3.org/1999/xlink"
   xmlns="http://www.w3.org/2000/svg"
   xmlns:svg="http://www.w3.org/2000/svg"><sodipodi:namedview
     id="namedview2203"
     pagecolor="#505050"
     bordercolor="#eeeeee"
     borderopacity="1"
     inkscape:pageshadow="0"
     inkscape:pageopacity="0"
     inkscape:pagecheckerboard="0"
     inkscape:document-units="px"
     showgrid="false"
     inkscape:zoom="1.2810466"
     inkscape:cx="298.19368"
     inkscape:cy="338.00488"
     inkscape:window-width="1920"
     inkscape:window-height="1011"
     inkscape:window-x="0"
     inkscape:window-y="0"
     inkscape:window-maximized="1"
     inkscape:current-layer="use6465"
     showguides="true"
     inkscape:guide-bbox="true"
     inkscape:lockguides="true"
     inkscape:showpageshadow="0"
     inkscape:deskcolor="#505050"><inkscape:grid
       type="xygrid"
       id="grid2209" /><sodipodi:guide
       position="358,320"
       orientation="0,-1"
       id="guide2818"
       inkscape:locked="true" /><sodipodi:guide
       position="330.8748,160"
       orientation="0,-1"
       id="guide2820"
       inkscape:locked="true" /><sodipodi:guide
       position="358,160"
       orientation="1,0"
       id="guide2822"
       inkscape:locked="true" /><sodipodi:guide
       position="166,320"
       orientation="1,0"
       id="guide2824"
       inkscape:locked="true" /><sodipodi:guide
       position="584,490"
       orientation="0,-1"
       id="guide4538"
       inkscape:locked="true" /><sodipodi:guide
       position="584,474"
       orientation="0,-1"
       id="guide4540"
       inkscape:locked="true" /><sodipodi:guide
       position="564,490"
       orientation="1,0"
       id="guide4542"
       inkscape:locked="true" /><sodipodi:guide
       position="584,474"
       orientation="1,0"
       id="guide4544"
       inkscape:locked="true" /></sodipodi:namedview><defs
     id="defs2198"><filter
       inkscape:collect="always"
       style="color-interpolation-filters:sRGB"
       id="filter1302"
       x="-0.012000846"
       width="1.0240017"
       y="-0.011999155"
       height="1.0239983"><feGaussianBlur
         inkscape:collect="always"
         stdDeviation="2.0803224"
         id="feGaussianBlur1304" /></filter><linearGradient
       id="bg-gradient-2"
       inkscape:swatch="gradient"><stop
         style="stop-color:#3584e4;stop-opacity:1"
         offset="0"
         id="stop13402" /><stop
         style="stop-color:#62a0ea;stop-opacity:1"
         offset="1"
         id="stop13404" /></linearGradient><clipPath
       clipPathUnits="userSpaceOnUse"
       id="clipPath1509"><path
         sodipodi:nodetypes="ccccccccc"
         inkscape:connector-curvature="0"
         id="path1511"
         d="M 192,-164 H 88 c 0,0 -40,0 -40,40 V 4 h 416 v -96 c 0,0 0,-40 -40,-40 H 224 Z"
         style="display:inline;opacity:1;vector-effect:none;fill:#c9b8a7;fill-opacity:1;stroke:none;stroke-width:26.0669;stroke-linecap:butt;stroke-linejoin:miter;stroke-miterlimit:4;stroke-dasharray:none;stroke-dashoffset:0;stroke-opacity:1;marker:none;marker-start:none;marker-mid:none;marker-end:none;paint-order:normal;enable-background:new" /></clipPath><filter
       inkscape:collect="always"
       style="color-interpolation-filters:sRGB"
       id="filter1529"
       x="-0.10846153"
       width="1.2169231"
       y="-0.13428571"
       height="1.2685714"><feGaussianBlur
         inkscape:collect="always"
         stdDeviation="18.8"
         id="feGaussianBlur1531" /></filter><linearGradient
       inkscape:collect="always"
       id="linearGradient888"><stop
         style="stop-color:#99c1f1;stop-opacity:1"
         offset="0"
         id="stop884" /><stop
         style="stop-color:#c3e5e7;stop-opacity:1"
         offset="1"
         id="stop886" /></linearGradient><linearGradient
       id="bg-gradient"
       inkscape:swatch="gradient"><stop
         style="stop-color:#3584e4;stop-opacity:1"
         offset="0"
         id="stop9546" /><stop
         style="stop-color:#1a5fb4;stop-opacity:1"
         offset="1"
         id="stop9548" /></linearGradient><linearGradient
       inkscape:collect="always"
       id="linearGradient6886"><stop
         style="stop-color:#99c1f1;stop-opacity:1"
         offset="0"
         id="stop6882" /><stop
         style="stop-color:#589ae8;stop-opacity:1"
         offset="1"
         id="stop6884" /></linearGradient><clipPath
       clipPathUnits="userSpaceOnUse"
       id="clipPath713"><path
         sodipodi:nodetypes="ccccccccc"
         inkscape:connector-curvature="0"
         id="path711"
         d="M 192,-164 H 88 c 0,0 -40,0 -40,40 V 4 h 416 v -96 c 0,0 0,-40 -40,-40 H 224 Z"
         style="display:inline;opacity:1;vector-effect:none;fill:#c9b8a7;fill-opacity:1;stroke:none;stroke-width:26.0669;stroke-linecap:butt;stroke-linejoin:miter;stroke-miterlimit:4;stroke-dasharray:none;stroke-dashoffset:0;stroke-opacity:1;marker:none;marker-start:none;marker-mid:none;marker-end:none;paint-order:normal;enable-background:new" /></clipPath><linearGradient
       inkscape:collect="always"
       xlink:href="#bg-gradient-2"
       id="linearGradient2607"
       gradientUnits="userSpaceOnUse"
       x1="64"
       y1="756"
       x2="480"
       y2="756" /><linearGradient
       inkscape:collect="always"
       xlink:href="#linearGradient888"
       id="linearGradient2609"
       gradientUnits="userSpaceOnUse"
       x1="152.89844"
       y1="-38.796875"
       x2="447.30859"
       y2="316" /><linearGradient
       inkscape:collect="always"
       xlink:href="#bg-gradient"
       id="linearGradient2611"
       gradientUnits="userSpaceOnUse"
       x1="562"
       y1="669.5"
       x2="606"
       y2="669.5" /><linearGradient
       inkscape:collect="always"
       xlink:href="#linearGradient888"
       id="linearGradient2613"
       gradientUnits="userSpaceOnUse"
       x1="579.5"
       y1="-180.5"
       x2="588.26953"
       y2="-142.25195" /><linearGradient
       inkscape:collect="always"
       xlink:href="#linearGradient6886"
       id="linearGradient2615"
       gradientUnits="userSpaceOnUse"
       x1="578.09155"
       y1="-145.99738"
       x2="566.27075"
       y2="-190.11331" /></defs><g
     inkscape:label="Camada 1"
     inkscape:groupmode="layer"
     id="layer1"><g
       id="use6465"
       style="display:inline;fill:#c9b8a7;fill-opacity:1;stroke:#a08f7f;stroke-opacity:1;enable-background:new"
       transform="translate(-10.000103,284)"><g
         transform="matrix(4,0,0,4,16.000006,-6796)"
         style="display:inline;enable-background:new"
         id="g2587"
         inkscape:label="#g3169"
         inkscape:export-filename="/var/home/cleomenezesjr/Projects/Custom-Adwaita-Folder-Icons/Icons/Code/code_default.png"
         inkscape:export-xdpi="18.000002"
         inkscape:export-ydpi="18.000002"><title
           id="title2569">folder</title><rect
           y="1642"
           x="-1.5000001e-06"
           height="128"
           width="128"
           id="rect2571"
           style="display:inline;opacity:1;vector-effect:none;fill:none;fill-opacity:1;stroke:none;stroke-width:5;stroke-linecap:butt;stroke-linejoin:miter;stroke-miterlimit:4;stroke-dasharray:none;stroke-dashoffset:0;stroke-opacity:1;marker:none;marker-start:none;marker-mid:none;marker-end:none;paint-order:normal;enable-background:new" /><g
           transform="matrix(0.25,0,0,0.25,-1.5e-6,1695)"
           id="g2585"
           inkscape:export-filename="/var/home/cleomenezesjr/Projects/Custom-Adwaita-Folder-Icons/Icons/Code/code.png"
           inkscape:export-xdpi="96"
           inkscape:export-ydpi="96"><path
             inkscape:connector-curvature="0"
             id="path2573"
             d="m 88,-162 c 0,0 -40,0 -40,40 L 47.964844,6 h 0.0332 L 47.964844,254.0938 424,254 c 40,0 40,-40 40,-40 V 6 -42 -90 c 0,0 0,-40 -40,-40 H 224 l -32,-32 z"
             style="display:inline;opacity:0.2;vector-effect:none;fill:#000000;fill-opacity:1;stroke:none;stroke-width:26.0669;stroke-linecap:butt;stroke-linejoin:miter;stroke-miterlimit:4;stroke-dasharray:none;stroke-dashoffset:0;stroke-opacity:1;marker:none;marker-start:none;marker-mid:none;marker-end:none;paint-order:normal;filter:url(#filter1302);enable-background:new" /><path
             style="display:inline;opacity:1;vector-effect:none;fill:url(#linearGradient2607);fill-opacity:1;stroke:none;stroke-width:26.0669;stroke-linecap:butt;stroke-linejoin:miter;stroke-miterlimit:4;stroke-dasharray:none;stroke-dashoffset:0;stroke-opacity:1;marker:none;marker-start:none;marker-mid:none;marker-end:none;paint-order:normal;enable-background:new"
             d="M 208,672 H 104 c 0,0 -40,0 -40,40 v 128 h 416 v -96 c 0,0 0,-40 -40,-40 H 240 Z"
             transform="translate(-16,-836)"
             id="path2575"
             inkscape:connector-curvature="0"
             sodipodi:nodetypes="ccccccccc" /><path
             id="path2577"
             d="m 256,-80 -32,32 H 88 c 0,0 -40,0 -40,40 v 264 h 376 c 40,0 40,-40 40,-40 V -40 c 0,-40 -40,-40 -40,-40 z"
             style="display:inline;opacity:0.1;vector-effect:none;fill:#000000;fill-opacity:1;stroke:none;stroke-width:26.0669;stroke-linecap:butt;stroke-linejoin:miter;stroke-miterlimit:4;stroke-dasharray:none;stroke-dashoffset:0;stroke-opacity:1;marker:none;marker-start:none;marker-mid:none;marker-end:none;paint-order:normal;filter:url(#filter1529);enable-background:new"
             inkscape:connector-curvature="0"
             sodipodi:nodetypes="cccccccccc"
             clip-path="url(#clipPath1509)" /><path
             sodipodi:nodetypes="cccccccccc"
             inkscape:connector-curvature="0"
             style="display:inline;opacity:1;vector-effect:none;fill:url(#linearGradient2609);fill-opacity:1;stroke:none;stroke-width:26.0669;stroke-linecap:butt;stroke-linejoin:miter;stroke-miterlimit:4;stroke-dasharray:none;stroke-dashoffset:0;stroke-opacity:1;marker:none;marker-start:none;marker-mid:none;marker-end:none;paint-order:normal;enable-background:new"
             d="m 256,-84 -32,32 H 88 c 0,0 -40,0 -40,40 v 264 h 376 c 40,0 40,-40 40,-40 V -44 c 0,-40 -40,-40 -40,-40 z"
             id="path2579" /><path
             style="font-variation-settings:normal;display:inline;opacity:1;vector-effect:none;fill:#99c1f1;fill-opacity:1;stroke:none;stroke-width:26.0669;stroke-linecap:butt;stroke-linejoin:miter;stroke-miterlimit:4;stroke-dasharray:none;stroke-dashoffset:0;stroke-opacity:1;-inkscape-stroke:none;marker:none;marker-start:none;marker-mid:none;marker-end:none;paint-order:normal;enable-background:new;stop-color:#000000;stop-opacity:1"
             d="m 480,1042 c 0,0 0,40 -40,40 l -375.998047,0.094 -0.0039,6 L 440,1088 c 40,0 40,-40 40,-40 z"
             transform="translate(-16,-836)"
             id="path2581"
             inkscape:connector-curvature="0" /><path
             style="display:inline;opacity:0.3;vector-effect:none;fill:#ffffff;fill-opacity:1;stroke:none;stroke-width:26.0669;stroke-linecap:butt;stroke-linejoin:miter;stroke-miterlimit:4;stroke-dasharray:none;stroke-dashoffset:0;stroke-opacity:1;marker:none;marker-start:none;marker-mid:none;marker-end:none;paint-order:normal;enable-background:new"
             d="m 272,752 -32,32 H 104 c 0,0 -40,0 -40,40 v 4 c 0,-40 40,-42 40,-42 h 136.59099 l 32,-32 H 440 c 5.38035,0 40,2 40,42 v -4 c 0,-40 -40,-40 -40,-40 z"
             id="path2583"
             inkscape:connector-curvature="0"
             sodipodi:nodetypes="cccsccccccscc"
             transform="translate(-16,-836)" /></g></g><path
         style="display:inline;opacity:1;vector-effect:none;fill:url(#linearGradient2611);fill-opacity:1;stroke:#1c71d8;stroke-width:1;stroke-linecap:butt;stroke-linejoin:miter;stroke-miterlimit:4;stroke-dasharray:none;stroke-dashoffset:0;stroke-opacity:1;marker:none;marker-start:none;marker-mid:none;marker-end:none;paint-order:normal;enable-background:new"
         d="m 566,658.5 c 0,0 -3.5,0 -3.5,3.5 v 18.5 h 43 V 666 c 0,0 0,-3.5 -3.5,-3.5 h -20.5 l -4,-4 z"
         id="path2589"
         inkscape:connector-curvature="0"
         sodipodi:nodetypes="cscccsccc"
         inkscape:export-filename="drawing_64x64.png"
         inkscape:export-xdpi="139.63637"
         inkscape:export-ydpi="139.63637"
         transform="translate(0,-852)" /><path
         id="path2591"
         d="m 566,-180.5 c 0,0 -3.5,0 -3.5,3.5 v 26.5 H 601 c 0,0 4.5,0 4.5,-4.5 v -26 c 0,0 0,-3.5 -3.5,-3.5 h -18.5 l -4,4 z"
         style="display:inline;opacity:1;vector-effect:none;fill:url(#linearGradient2613);fill-opacity:1;stroke:url(#linearGradient2615);stroke-width:1;stroke-linecap:butt;stroke-linejoin:miter;stroke-miterlimit:4;stroke-dasharray:none;stroke-dashoffset:0;stroke-opacity:1;marker:none;marker-start:none;marker-mid:none;marker-end:none;paint-order:normal;enable-background:new"
         inkscape:connector-curvature="0"
         sodipodi:nodetypes="cccccccccc"
         inkscape:export-filename="/var/home/cleomenezesjr/Projects/Custom-Adwaita-Folder-Icons/Icons/Code/code_64x64.png"
         inkscape:export-xdpi="139.63637"
         inkscape:export-ydpi="139.63637" /><path
         d="m 239.99998,-4 c -17.54164,0 -31.99999,14.458349 -31.99999,32.000003 v 95.999987 c 0,17.54166 14.45835,32.00001 31.99999,32.00001 h 64.00004 c 17.54164,0 31.99999,-14.45835 31.99999,-32.00001 V 44.000006 c 0,-2.833282 -1.12502,-5.541654 -3.12501,-7.541653 L 295.54166,-0.87498575 C 293.54166,-2.8749872 290.83329,-4 288.00001,-4 Z m 0,21.333335 h 42.66668 v 16.000003 c 0,10.666668 5.33335,16.000001 16,16.000001 h 16.00002 v 53.125011 c -10.91671,-0.91628 -15.79168,-4.749986 -20.50006,-9.041717 -2.70827,-2.499943 -5.24992,-5.333344 -8.66667,-7.74998 -3.45825,-2.458345 -8.04159,-4.333328 -13.49994,-4.333328 -5.45837,0 -10.04171,1.874983 -13.50008,4.333328 -3.41663,2.416636 -5.9583,5.250037 -8.66665,7.74998 -4.70828,4.291731 -9.58325,8.125017 -20.49993,9.041717 V 28.000003 c 0,-6.083308 4.58333,-10.666668 10.66663,-10.666668 z m 16.00001,21.333337 c -8.79167,0 -16.00001,7.208321 -16.00001,15.999982 0,8.791672 7.20834,16 16.00001,16 8.79168,0 16.00002,-7.208328 16.00002,-16 0,-8.791661 -7.20834,-15.999982 -16.00002,-15.999982 z m 0,10.666667 c 3,0 5.33335,2.333313 5.33335,5.333315 0,3 -2.33335,5.333327 -5.33335,5.333327 -3,0 -5.33333,-2.333327 -5.33333,-5.333327 0,-3.000002 2.33333,-5.333315 5.33333,-5.333315 z m 16.00002,42.666659 c 3.29162,0 5.125,0.791454 7.29162,2.333329 2.16672,1.583362 4.54165,4.083305 7.66667,6.916683 5.54165,5.12503 13.83338,10.70828 27.70838,11.87498 v 10.875 c 0,6.08332 -4.58336,10.66667 -10.66666,10.66667 h -64.00004 c -6.0833,0 -10.66663,-4.58335 -10.66663,-10.66667 v -10.875 c 13.87497,-1.1667 22.1666,-6.74995 27.70835,-11.87498 3.12492,-2.833378 5.49994,-5.333321 7.66667,-6.916683 2.16662,-1.541655 4,-2.333329 7.29164,-2.333329 z m 0,0"
         fill="#2e3436"
         id="path8483"
         style="fill:#428ce6;fill-opacity:1;stroke:none;stroke-width:10.6666"
         inkscape:export-filename="drawing_default.png"
         inkscape:export-xdpi="18.000002"
         inkscape:export-ydpi="18.000002" /><path
         d="m 580.80011,-174 c -1.75417,0 -3.20001,1.44584 -3.20001,3.2 v 9.60001 c 0,1.75417 1.44584,3.19999 3.20001,3.19999 h 6.4 c 1.75415,0 3.19999,-1.44582 3.19999,-3.19999 v -8.00002 c 0,-0.28333 -0.11251,-0.55415 -0.31251,-0.75417 l -3.73333,-3.73331 C 586.15428,-173.88748 585.88343,-174 585.6001,-174 Z m 0,2.13334 h 4.26666 v 1.6 c 0,1.06665 0.53333,1.59999 1.59999,1.59999 h 1.60002 v 5.31251 c -1.09167,-0.0916 -1.57918,-0.475 -2.05001,-0.90417 -0.27085,-0.25 -0.52501,-0.53332 -0.86667,-0.77499 -0.34583,-0.24584 -0.80416,-0.43334 -1.34999,-0.43334 -0.54585,0 -1.00418,0.1875 -1.35001,0.43334 -0.34167,0.24167 -0.59584,0.52499 -0.86666,0.77499 -0.47083,0.42917 -0.95833,0.8125 -2.05,0.90417 V -170.8 c 0,-0.60833 0.45833,-1.06666 1.06667,-1.06666 z m 1.59999,2.13333 c -0.87917,0 -1.59999,0.72083 -1.59999,1.60001 0,0.87917 0.72082,1.6 1.59999,1.6 0.87917,0 1.60001,-0.72083 1.60001,-1.6 0,-0.87918 -0.72084,-1.60001 -1.60001,-1.60001 z m 0,1.06666 c 0.30001,0 0.53332,0.23335 0.53332,0.53335 0,0.29999 -0.23331,0.53332 -0.53332,0.53332 -0.3,0 -0.53334,-0.23333 -0.53334,-0.53332 0,-0.3 0.23334,-0.53335 0.53334,-0.53335 z m 1.60001,4.26667 c 0.32916,0 0.51248,0.0791 0.72917,0.23333 0.21665,0.15835 0.45417,0.40833 0.76664,0.69167 0.55418,0.5125 1.38336,1.07084 2.77086,1.1875 v 1.08751 c 0,0.60832 -0.45835,1.06666 -1.06667,1.06666 h -6.4 c -0.60834,0 -1.06667,-0.45834 -1.06667,-1.06666 v -1.08751 c 1.38749,-0.11662 2.21666,-0.675 2.77082,-1.1875 0.31251,-0.28334 0.55,-0.53332 0.76668,-0.69167 0.21667,-0.15415 0.4,-0.23333 0.72917,-0.23333 z m 0,0"
         fill="#2e3436"
         id="path8483-1"
         style="display:inline;fill:#428ce6;fill-opacity:1;stroke:none;stroke-width:1.06666;stroke-opacity:1;enable-background:new" /></g></g></svg>
